# xmcd
#
# Track frame offsets: 
#        150
#        12687
#        25302
#        46735
#        60777
#        73862
#        94067
#        106450
#        119797
#        132382
#        149350
#        162195
#        173535
#        187035
#        203725
#
# Disc length: 2873 seconds
#
# Revision: 0
# Processed by: cddbd v1.5.1PL2 Copyright (c) Steve Scherf et al.
# Submitted via: ExactAudioCopy v0.95a5
#
DISCID=d60b370f
DTITLE=The Bishops - No 2 Ways About It
DYEAR=1992
DGENRE=Southern Gospel
TTITLE0=Hallelujah Morning
TTITLE1=Heaven' On A One Way Street
TTITLE2=These Are They
TTITLE3=He's Living Again
TTITLE4=Ten Thousand Angels And Me
TTITLE5=I'd Sure Like To Be There Now
TTITLE6=New Campmeeting Days
TTITLE7=Look To Him
TTITLE8=Hearts On Fire
TTITLE9=Sheltered By The Master's Arms
TTITLE10=Blind Bartimaeus
TTITLE11=Oh God, I Love You
TTITLE12=Battle Scarred Soldier
TTITLE13=God's Amazing Grace
TTITLE14=Whispering Hope
EXTD=
EXTT0=
EXTT1=
EXTT2=
EXTT3=
EXTT4=
EXTT5=
EXTT6=
EXTT7=
EXTT8=
EXTT9=
EXTT10=
EXTT11=
EXTT12=
EXTT13=
EXTT14=
PLAYORDER=
